<svg id="svg" version="1.1" xmlns="http://www.w3.org/2000/svg" xmlns:xlink="http://www.w3.org/1999/xlink" width="400" height="400" viewBox="0, 0, 400,400"><g id="svgg"><path id="path0" d="M161.600 55.612 C 160.610 55.787,157.822 56.230,155.404 56.596 C 152.986 56.962,150.811 57.425,150.570 57.625 C 150.329 57.825,148.798 58.246,147.166 58.562 C 145.535 58.877,143.390 59.506,142.400 59.959 C 141.410 60.412,140.290 60.786,139.911 60.791 C 138.918 60.804,126.135 67.423,124.000 69.030 C 123.010 69.775,121.695 70.667,121.079 71.013 C 120.462 71.359,119.652 71.905,119.279 72.226 C 118.905 72.547,117.088 74.076,115.241 75.624 C 113.394 77.172,111.144 79.270,110.241 80.287 C 109.338 81.304,108.043 82.690,107.363 83.368 C 106.103 84.623,103.987 87.200,102.210 89.643 C 99.646 93.168,98.874 94.366,97.200 97.419 C 96.210 99.224,94.738 101.908,93.928 103.384 C 93.119 104.859,92.231 106.997,91.954 108.133 C 91.678 109.270,91.236 110.650,90.971 111.200 C 90.707 111.750,90.196 113.357,89.836 114.771 C 89.475 116.185,89.010 117.546,88.803 117.796 C 88.595 118.047,88.145 119.878,87.802 121.867 C 87.458 123.856,86.994 126.095,86.771 126.842 C 85.127 132.328,86.624 155.334,88.919 159.868 C 89.235 160.491,89.721 161.990,90.000 163.200 C 90.279 164.410,90.720 165.850,90.980 166.400 C 91.240 166.950,91.688 168.390,91.976 169.600 C 92.264 170.810,92.722 172.070,92.993 172.400 C 93.265 172.730,93.694 173.618,93.948 174.374 C 94.202 175.130,94.660 176.030,94.965 176.374 C 95.270 176.718,96.217 178.350,97.070 180.000 C 98.737 183.224,100.808 186.515,101.308 186.736 C 101.478 186.811,101.875 187.372,102.191 187.983 C 102.507 188.593,103.122 189.522,103.559 190.046 C 109.591 197.290,113.111 200.928,116.268 203.177 C 117.330 203.934,118.380 204.744,118.600 204.977 C 119.505 205.934,122.965 208.400,123.404 208.400 C 123.663 208.400,124.198 208.755,124.591 209.190 C 124.984 209.624,125.683 210.099,126.145 210.246 C 126.607 210.393,127.438 210.819,127.992 211.194 C 130.887 213.150,132.350 213.961,133.800 214.409 C 134.680 214.681,135.600 215.062,135.844 215.254 C 136.087 215.447,137.328 215.962,138.600 216.400 C 139.872 216.838,141.113 217.351,141.356 217.540 C 145.276 220.586,169.610 223.506,178.600 222.009 C 179.700 221.825,182.760 221.365,185.400 220.986 C 190.182 220.299,195.573 218.756,198.585 217.212 C 199.456 216.766,200.446 216.394,200.785 216.387 C 201.123 216.381,202.475 215.841,203.790 215.187 C 205.104 214.534,206.489 214.000,206.866 214.000 C 207.244 214.000,207.666 213.817,207.805 213.592 C 207.943 213.368,208.899 212.732,209.928 212.179 C 210.958 211.627,212.610 210.647,213.600 210.002 C 214.590 209.357,215.969 208.569,216.665 208.250 C 217.361 207.931,218.274 207.339,218.695 206.935 C 219.915 205.762,222.732 203.487,224.329 202.385 C 226.108 201.157,232.061 195.132,234.000 192.597 C 234.770 191.590,236.120 189.829,237.000 188.683 C 239.455 185.488,241.600 182.198,241.600 181.628 C 241.600 181.346,242.005 180.617,242.500 180.008 C 244.395 177.676,246.350 173.573,247.618 169.262 C 248.029 167.866,248.524 166.516,248.719 166.262 C 250.307 164.185,252.248 155.155,253.229 145.282 C 253.937 138.144,252.496 122.927,250.581 117.333 C 250.042 115.756,249.600 114.223,249.600 113.927 C 249.600 113.631,249.254 112.743,248.832 111.955 C 248.409 111.166,247.861 109.729,247.613 108.761 C 247.365 107.792,246.914 106.460,246.612 105.800 C 244.439 101.063,243.871 99.956,242.614 98.013 C 241.837 96.811,241.200 95.694,241.200 95.531 C 241.200 94.720,234.743 85.914,232.063 83.072 C 227.197 77.909,220.982 72.357,218.600 71.045 C 217.940 70.682,216.590 69.765,215.600 69.007 C 214.610 68.250,213.080 67.268,212.200 66.825 C 211.320 66.382,210.330 65.840,210.000 65.620 C 209.670 65.400,208.770 64.943,208.000 64.605 C 207.230 64.268,205.250 63.278,203.600 62.406 C 201.950 61.534,200.240 60.812,199.800 60.801 C 199.360 60.791,198.190 60.415,197.200 59.965 C 196.210 59.516,194.173 58.890,192.674 58.574 C 191.174 58.258,189.605 57.817,189.186 57.593 C 186.187 55.988,167.191 54.624,161.600 55.612 " stroke="none" fill="#fbfafa" fill-rule="evenodd"></path><path id="path1" d="M72.000 0.600 C 72.000 1.010,71.556 1.216,70.600 1.250 C 68.286 1.333,68.205 1.366,68.072 2.300 C 67.965 3.058,66.577 3.590,65.900 3.132 C 65.567 2.907,64.000 4.129,64.000 4.614 C 64.000 4.936,63.674 5.200,63.275 5.200 C 62.876 5.200,62.042 5.730,61.420 6.379 C 60.799 7.027,59.839 7.612,59.286 7.679 C 58.733 7.745,58.083 8.150,57.840 8.578 C 57.598 9.006,57.059 9.726,56.641 10.178 C 56.224 10.630,56.027 10.747,56.203 10.438 C 56.425 10.050,56.373 9.970,56.035 10.179 C 55.766 10.345,55.636 10.718,55.747 11.007 C 55.925 11.469,55.181 12.064,54.300 12.165 C 54.135 12.184,53.985 12.380,53.966 12.600 C 53.905 13.318,53.118 14.000,52.351 14.000 C 51.938 14.000,51.586 14.225,51.569 14.500 C 51.481 15.944,51.147 16.683,50.222 17.481 C 49.660 17.965,49.200 18.730,49.200 19.181 C 49.200 19.631,49.033 20.000,48.829 20.000 C 47.975 20.000,47.200 21.347,47.200 22.829 C 47.200 24.117,47.060 24.400,46.424 24.400 C 45.431 24.400,45.251 24.718,44.934 27.030 C 44.791 28.073,44.336 29.264,43.922 29.678 C 43.509 30.091,43.278 30.603,43.409 30.815 C 43.540 31.027,43.457 31.200,43.224 31.200 C 42.926 31.200,42.800 72.738,42.800 170.545 L 42.800 309.889 43.858 309.687 C 44.823 309.502,45.700 308.906,46.940 307.593 C 50.265 304.069,56.592 298.132,59.600 295.711 C 61.690 294.029,63.580 292.446,63.800 292.192 C 64.020 291.938,64.639 291.497,65.175 291.211 C 65.711 290.926,66.341 290.533,66.575 290.339 C 67.472 289.595,70.642 287.454,74.623 284.902 C 75.051 284.629,76.390 283.885,77.600 283.251 C 81.791 281.053,83.803 279.980,84.400 279.626 C 85.647 278.887,89.462 277.235,91.000 276.768 C 91.880 276.501,93.227 275.949,93.994 275.541 C 94.761 275.134,95.682 274.800,96.040 274.800 C 96.399 274.800,97.128 274.457,97.660 274.039 C 98.193 273.620,99.432 273.071,100.414 272.819 C 101.396 272.567,103.010 272.031,104.000 271.627 C 104.990 271.223,107.047 270.681,108.571 270.422 C 110.096 270.163,111.677 269.773,112.087 269.554 C 112.496 269.335,114.218 268.892,115.915 268.570 C 117.612 268.248,119.540 267.731,120.200 267.422 C 120.860 267.112,123.380 266.579,125.800 266.238 C 128.220 265.896,130.830 265.428,131.600 265.197 C 132.370 264.966,135.970 264.594,139.600 264.371 C 143.230 264.148,147.910 263.658,150.000 263.282 C 155.631 262.271,186.757 262.290,192.496 263.309 C 194.638 263.689,197.878 264.001,199.696 264.002 C 204.600 264.004,213.783 264.739,217.200 265.403 C 218.850 265.723,221.910 266.186,224.000 266.432 C 226.090 266.678,228.394 267.125,229.119 267.427 C 229.845 267.729,232.005 268.176,233.919 268.422 C 235.834 268.668,238.750 269.198,240.400 269.600 C 242.050 270.002,244.750 270.458,246.400 270.613 C 248.050 270.768,250.480 271.222,251.800 271.621 C 253.120 272.021,254.920 272.464,255.800 272.605 C 256.680 272.747,258.660 273.282,260.200 273.794 C 261.740 274.306,263.900 274.855,265.000 275.014 C 266.100 275.174,267.450 275.529,268.000 275.804 C 268.550 276.079,270.350 276.527,272.000 276.800 C 273.650 277.073,275.450 277.524,276.000 277.802 C 276.550 278.081,278.080 278.527,279.400 278.794 C 280.720 279.061,282.340 279.522,283.000 279.819 C 283.660 280.116,285.348 280.649,286.751 281.004 C 288.154 281.358,289.684 281.891,290.151 282.188 C 290.618 282.484,292.080 282.940,293.400 283.200 C 294.720 283.460,296.160 283.899,296.600 284.176 C 297.040 284.452,298.390 284.906,299.600 285.184 C 300.810 285.462,302.160 285.912,302.600 286.184 C 303.040 286.456,304.352 286.906,305.515 287.183 C 306.678 287.460,307.872 287.929,308.167 288.224 C 308.463 288.520,309.761 289.021,311.052 289.337 C 313.646 289.972,318.515 291.840,320.000 292.770 C 321.293 293.580,325.895 295.600,326.447 295.600 C 326.768 295.600,327.716 295.950,328.554 296.377 C 329.392 296.804,330.578 297.263,331.190 297.398 C 331.801 297.532,332.899 298.082,333.628 298.621 C 334.358 299.159,335.165 299.600,335.422 299.600 C 335.678 299.600,336.551 300.050,337.362 300.600 C 338.172 301.150,339.071 301.600,339.358 301.600 C 339.646 301.600,340.685 302.027,341.667 302.550 C 342.650 303.072,343.891 303.633,344.427 303.797 C 344.962 303.961,345.727 304.382,346.127 304.734 C 347.916 306.306,355.099 310.000,356.369 310.000 L 357.200 310.000 357.200 169.981 L 357.200 29.962 356.200 29.035 C 355.487 28.374,355.200 27.691,355.200 26.654 C 355.200 25.854,355.009 25.200,354.776 25.200 C 354.543 25.200,354.464 25.020,354.600 24.800 C 354.736 24.580,354.477 24.400,354.024 24.400 C 353.483 24.400,353.183 24.125,353.150 23.600 C 353.123 23.160,353.055 22.620,353.000 22.400 C 352.945 22.180,352.878 21.669,352.850 21.264 C 352.822 20.860,352.354 20.325,351.808 20.076 C 351.221 19.809,350.902 19.400,351.027 19.075 C 351.143 18.772,350.684 17.933,350.008 17.209 C 349.332 16.485,348.721 15.512,348.651 15.046 C 348.577 14.548,348.179 14.149,347.687 14.075 C 347.181 14.000,346.800 13.604,346.725 13.075 C 346.656 12.594,346.420 12.213,346.200 12.229 C 345.696 12.265,345.062 11.637,344.451 10.496 C 344.190 10.007,343.769 9.651,343.515 9.704 C 343.261 9.757,342.807 9.305,342.505 8.700 C 342.203 8.095,341.625 7.600,341.220 7.600 C 340.816 7.600,339.907 7.060,339.200 6.400 C 338.493 5.740,337.574 5.200,337.158 5.200 C 336.741 5.200,336.400 4.936,336.400 4.614 C 336.400 3.801,335.125 3.200,333.403 3.200 C 332.605 3.200,332.054 3.036,332.178 2.836 C 332.752 1.907,331.878 1.200,330.157 1.200 C 328.862 1.200,328.400 1.042,328.400 0.600 C 328.400 0.068,313.889 0.000,200.200 0.000 C 86.511 0.000,72.000 0.068,72.000 0.600 M183.600 54.666 C 184.590 55.123,186.660 55.619,188.200 55.769 C 189.740 55.919,191.561 56.372,192.247 56.776 C 192.933 57.180,194.463 57.636,195.647 57.789 C 196.831 57.942,198.520 58.395,199.400 58.794 C 200.280 59.194,201.661 59.728,202.468 59.981 C 203.275 60.234,204.145 60.693,204.400 61.000 C 204.655 61.307,205.525 61.770,206.332 62.029 C 207.139 62.287,208.160 62.814,208.600 63.200 C 209.040 63.586,210.050 64.017,210.845 64.158 C 211.640 64.300,212.613 64.772,213.007 65.208 C 213.401 65.644,213.921 66.002,214.162 66.004 C 214.575 66.008,217.343 67.980,218.920 69.395 C 219.317 69.750,219.979 70.167,220.393 70.320 C 222.479 71.096,234.669 82.732,236.093 85.307 C 236.474 85.996,237.059 86.713,237.393 86.900 C 237.727 87.087,238.000 87.474,238.000 87.761 C 238.000 88.216,238.617 89.008,241.016 91.630 C 241.334 91.977,241.803 92.877,242.060 93.630 C 242.317 94.384,242.949 95.509,243.464 96.131 C 243.979 96.753,244.400 97.504,244.400 97.800 C 244.400 98.096,244.838 98.860,245.374 99.496 C 245.910 100.133,246.467 101.129,246.613 101.710 C 246.759 102.292,247.121 102.968,247.417 103.215 C 247.714 103.461,248.175 104.683,248.443 105.931 C 248.711 107.179,249.164 108.477,249.450 108.815 C 249.736 109.153,250.224 110.520,250.535 111.852 C 250.846 113.185,251.398 114.731,251.763 115.287 C 252.127 115.844,252.527 117.267,252.650 118.449 C 252.773 119.632,253.228 121.666,253.661 122.969 C 255.243 127.736,255.341 151.062,253.796 155.200 C 253.426 156.190,252.966 158.140,252.773 159.534 C 252.580 160.928,252.077 162.638,251.654 163.334 C 251.232 164.030,250.766 165.230,250.618 166.000 C 250.274 167.798,249.580 169.600,249.232 169.600 C 249.082 169.600,248.741 170.660,248.473 171.957 C 248.206 173.253,247.737 174.520,247.433 174.773 C 247.128 175.026,246.757 175.720,246.608 176.316 C 246.459 176.912,245.902 177.973,245.369 178.673 C 244.836 179.374,244.400 180.125,244.400 180.343 C 244.400 180.560,243.975 181.247,243.455 181.869 C 242.935 182.491,242.370 183.450,242.199 184.000 C 241.860 185.088,240.716 186.736,239.300 188.177 C 238.805 188.680,238.397 189.251,238.394 189.446 C 238.390 189.641,237.850 190.409,237.194 191.154 C 236.537 191.899,236.000 192.650,236.000 192.823 C 236.000 192.995,234.560 194.594,232.800 196.376 C 231.040 198.157,229.600 199.779,229.600 199.980 C 229.600 200.181,229.249 200.457,228.820 200.594 C 228.392 200.730,227.933 201.183,227.800 201.600 C 227.667 202.017,227.236 202.462,226.841 202.587 C 226.445 202.713,225.246 203.620,224.175 204.603 C 223.104 205.586,221.636 206.671,220.914 207.014 C 220.191 207.357,219.600 207.813,219.600 208.027 C 219.600 208.242,219.114 208.638,218.519 208.909 C 217.924 209.179,217.033 209.805,216.537 210.300 C 216.042 210.795,215.371 211.200,215.047 211.200 C 214.722 211.200,214.163 211.494,213.803 211.854 C 212.959 212.698,203.266 217.599,202.434 217.603 C 202.085 217.604,201.263 217.959,200.606 218.392 C 199.950 218.825,198.600 219.299,197.606 219.446 C 196.613 219.592,195.392 220.031,194.892 220.420 C 194.393 220.809,193.043 221.256,191.892 221.413 C 190.742 221.571,188.754 222.034,187.475 222.441 C 181.415 224.374,157.035 224.479,152.519 222.592 C 151.739 222.266,149.909 221.810,148.451 221.578 C 146.993 221.346,145.250 220.833,144.577 220.437 C 143.905 220.042,142.645 219.586,141.777 219.425 C 140.910 219.264,139.660 218.803,139.000 218.400 C 138.340 217.997,137.135 217.544,136.323 217.393 C 135.511 217.243,134.261 216.688,133.546 216.160 C 132.830 215.632,131.955 215.200,131.600 215.200 C 131.245 215.200,130.345 214.750,129.600 214.200 C 128.855 213.650,128.023 213.200,127.753 213.200 C 127.483 213.200,126.753 212.781,126.131 212.268 C 125.509 211.756,124.667 211.214,124.260 211.065 C 123.853 210.916,123.043 210.422,122.460 209.967 C 119.286 207.490,115.007 204.400,114.750 204.400 C 114.587 204.400,114.340 204.040,114.200 203.600 C 114.060 203.160,113.728 202.800,113.462 202.800 C 113.196 202.800,112.505 202.305,111.927 201.700 C 111.348 201.095,110.677 200.420,110.435 200.200 C 108.290 198.249,102.490 191.590,101.454 189.888 C 100.046 187.575,99.049 186.219,98.509 185.880 C 98.229 185.704,97.639 184.849,97.200 183.980 C 96.760 183.111,96.016 181.635,95.546 180.700 C 95.076 179.765,94.356 178.571,93.946 178.046 C 93.536 177.521,93.200 176.778,93.200 176.395 C 93.200 176.012,92.931 175.474,92.601 175.201 C 92.272 174.928,91.733 173.795,91.403 172.684 C 91.073 171.573,90.525 170.240,90.186 169.723 C 89.847 169.205,89.384 167.751,89.158 166.491 C 88.931 165.231,88.412 163.480,88.004 162.600 C 87.596 161.720,87.061 159.660,86.815 158.022 C 86.570 156.384,86.192 154.831,85.976 154.571 C 84.549 152.852,84.358 126.188,85.750 123.000 C 86.134 122.120,86.696 119.987,86.999 118.260 C 87.302 116.532,87.800 114.822,88.107 114.460 C 88.414 114.097,88.869 112.651,89.118 111.248 C 89.367 109.844,89.831 108.404,90.148 108.048 C 90.466 107.691,90.940 106.596,91.201 105.614 C 91.463 104.632,92.020 103.393,92.439 102.860 C 92.857 102.328,93.200 101.681,93.200 101.424 C 93.200 101.166,93.641 100.358,94.179 99.628 C 94.718 98.899,95.272 97.784,95.411 97.151 C 95.550 96.519,95.980 95.776,96.367 95.500 C 96.754 95.225,97.189 94.521,97.334 93.935 C 97.479 93.350,97.948 92.450,98.377 91.935 C 98.805 91.421,99.706 90.346,100.378 89.547 C 101.050 88.748,101.600 87.985,101.600 87.851 C 101.600 86.793,109.017 78.725,113.832 74.544 C 117.774 71.122,118.562 70.521,119.500 70.228 C 119.995 70.073,120.400 69.775,120.400 69.567 C 120.400 69.358,121.030 68.887,121.800 68.519 C 122.570 68.152,123.200 67.696,123.200 67.506 C 123.200 67.316,123.891 66.851,124.736 66.473 C 125.580 66.095,126.583 65.474,126.964 65.094 C 127.344 64.713,128.138 64.300,128.728 64.177 C 129.318 64.053,130.070 63.779,130.400 63.566 C 130.730 63.354,131.928 62.745,133.063 62.212 C 134.198 61.679,135.236 61.066,135.369 60.850 C 135.502 60.635,136.284 60.247,137.106 59.989 C 137.928 59.732,139.320 59.194,140.200 58.794 C 141.080 58.395,142.790 57.944,144.000 57.792 C 145.210 57.640,146.740 57.192,147.400 56.795 C 148.060 56.398,149.860 55.946,151.400 55.789 C 152.940 55.633,154.830 55.240,155.600 54.917 C 159.426 53.311,180.256 53.124,183.600 54.666 " stroke="none" fill="#db2c44" fill-rule="evenodd"></path><path id="path2" d="M165.000 264.032 C 162.580 264.205,156.010 264.629,150.400 264.974 C 144.790 265.320,139.300 265.849,138.200 266.150 C 137.100 266.451,133.680 266.912,130.600 267.174 C 127.364 267.450,124.508 267.902,123.834 268.245 C 123.193 268.571,121.213 269.025,119.434 269.255 C 117.655 269.484,115.570 269.996,114.800 270.393 C 114.030 270.790,112.414 271.247,111.210 271.408 C 110.005 271.568,108.653 271.940,108.205 272.234 C 107.757 272.527,106.132 273.051,104.595 273.397 C 103.058 273.744,101.260 274.288,100.600 274.607 C 99.940 274.926,98.656 275.372,97.747 275.597 C 96.837 275.822,95.880 276.263,95.619 276.577 C 95.358 276.891,94.572 277.272,93.872 277.423 C 93.173 277.574,91.880 278.108,91.000 278.609 C 90.120 279.111,88.770 279.649,88.000 279.805 C 87.230 279.961,86.330 280.309,86.000 280.579 C 85.670 280.848,84.770 281.311,84.000 281.607 C 83.230 281.904,82.091 282.563,81.469 283.073 C 80.847 283.583,80.117 284.000,79.847 284.000 C 79.577 284.000,78.745 284.450,78.000 285.000 C 77.255 285.550,76.342 286.000,75.971 286.000 C 75.601 286.000,75.063 286.283,74.776 286.629 C 74.489 286.975,73.611 287.609,72.827 288.037 C 72.042 288.465,70.320 289.612,69.000 290.587 C 67.680 291.562,66.381 292.369,66.114 292.380 C 65.847 292.391,65.435 292.760,65.200 293.200 C 64.965 293.640,64.521 294.000,64.215 294.000 C 63.909 294.000,63.330 294.405,62.929 294.900 C 62.528 295.395,61.320 296.430,60.243 297.200 C 59.167 297.970,57.822 299.095,57.254 299.700 C 56.686 300.305,55.992 300.800,55.711 300.800 C 55.430 300.800,55.200 300.980,55.200 301.200 C 55.200 301.692,52.043 304.800,51.543 304.800 C 51.345 304.800,50.979 305.247,50.731 305.792 C 50.482 306.338,49.946 306.890,49.539 307.019 C 49.133 307.148,48.800 307.491,48.800 307.780 C 48.800 308.878,45.671 311.200,44.191 311.200 L 42.785 311.200 42.892 340.635 L 43.000 370.071 43.900 370.800 C 44.395 371.200,44.800 371.882,44.800 372.314 C 44.800 374.325,45.323 375.616,46.230 375.843 C 46.986 376.033,47.180 376.384,47.279 377.738 C 47.372 379.012,47.610 379.492,48.300 379.795 C 48.826 380.025,49.200 380.542,49.200 381.036 C 49.200 381.502,49.626 382.343,50.148 382.906 C 50.669 383.468,51.209 384.382,51.349 384.937 C 51.488 385.493,51.934 386.052,52.340 386.181 C 52.746 386.310,53.282 386.862,53.531 387.408 C 53.787 387.971,54.321 388.400,54.764 388.400 C 55.269 388.400,55.589 388.718,55.672 389.300 C 55.753 389.870,56.121 390.246,56.675 390.325 C 57.219 390.402,57.598 390.779,57.675 391.321 C 57.745 391.806,58.146 392.258,58.582 392.341 C 59.011 392.423,59.849 393.010,60.442 393.645 C 61.172 394.427,61.913 394.800,62.733 394.800 C 63.685 394.800,63.972 394.993,64.072 395.700 C 64.181 396.468,64.479 396.618,66.100 396.722 C 67.815 396.832,68.000 396.939,68.000 397.822 C 68.000 398.673,68.182 398.800,69.400 398.800 C 70.378 398.800,70.800 398.981,70.800 399.400 C 70.800 399.932,85.422 400.000,200.000 400.000 C 314.578 400.000,329.200 399.932,329.200 399.400 C 329.200 398.982,329.621 398.800,330.592 398.800 C 331.736 398.800,332.029 398.625,332.231 397.820 C 332.441 396.981,332.743 396.823,334.338 396.720 C 335.887 396.620,336.220 396.457,336.322 395.748 C 336.413 395.105,336.812 394.836,337.943 394.656 C 338.828 394.514,339.801 394.003,340.318 393.408 C 340.800 392.854,341.446 392.400,341.754 392.400 C 342.062 392.400,342.426 391.950,342.564 391.400 C 342.725 390.758,343.097 390.400,343.600 390.400 C 344.099 390.400,344.474 390.044,344.630 389.423 C 344.779 388.828,345.213 388.398,345.738 388.323 C 346.265 388.248,346.648 387.865,346.723 387.338 C 346.798 386.813,347.228 386.379,347.823 386.230 C 348.521 386.055,348.800 385.709,348.800 385.019 C 348.800 384.432,349.089 383.962,349.539 383.819 C 350.338 383.566,351.200 382.013,351.200 380.828 C 351.200 380.424,351.546 380.003,351.969 379.892 C 352.522 379.748,352.811 379.197,353.002 377.926 C 353.193 376.652,353.508 376.055,354.133 375.780 C 354.817 375.480,355.026 374.998,355.122 373.500 C 355.189 372.455,355.401 371.600,355.593 371.600 C 357.207 371.600,357.200 371.731,357.200 340.971 L 357.200 311.600 356.260 311.600 C 354.945 311.600,352.751 310.817,351.800 310.009 C 351.360 309.635,350.370 309.093,349.600 308.803 C 348.830 308.513,348.000 308.034,347.756 307.738 C 347.194 307.057,342.992 304.800,342.285 304.800 C 341.994 304.800,341.145 304.350,340.400 303.800 C 339.655 303.250,338.747 302.800,338.382 302.800 C 338.018 302.800,336.928 302.263,335.960 301.607 C 334.992 300.951,333.958 300.411,333.662 300.407 C 333.366 300.403,332.644 300.059,332.058 299.641 C 331.472 299.224,330.274 298.689,329.396 298.451 C 328.518 298.214,327.087 297.655,326.215 297.210 C 325.344 296.764,324.380 296.400,324.074 296.400 C 323.768 296.400,322.681 295.963,321.659 295.428 C 318.500 293.777,315.488 292.476,313.400 291.860 C 309.976 290.851,305.900 289.284,305.644 288.880 C 305.510 288.667,304.325 288.271,303.011 288.000 C 301.697 287.728,299.990 287.167,299.217 286.753 C 298.444 286.339,297.269 285.998,296.606 285.996 C 295.943 285.994,294.498 285.572,293.395 285.058 C 292.292 284.545,290.672 283.991,289.795 283.829 C 288.918 283.666,287.660 283.207,287.000 282.809 C 286.340 282.410,284.990 281.955,284.000 281.798 C 283.010 281.640,281.570 281.250,280.800 280.931 C 280.030 280.612,277.960 280.079,276.200 279.747 C 274.440 279.415,272.631 278.906,272.181 278.616 C 271.731 278.325,270.138 277.897,268.642 277.664 C 267.146 277.431,265.501 276.965,264.987 276.628 C 264.472 276.291,262.750 275.813,261.160 275.567 C 259.569 275.320,257.587 274.878,256.754 274.584 C 255.921 274.290,253.746 273.833,251.920 273.568 C 250.094 273.303,247.880 272.826,247.000 272.508 C 246.120 272.190,243.525 271.676,241.232 271.367 C 238.940 271.057,236.652 270.533,236.147 270.202 C 235.641 269.871,234.457 269.596,233.514 269.592 C 230.963 269.580,226.469 268.864,225.049 268.242 C 224.362 267.942,220.920 267.481,217.400 267.218 C 213.880 266.954,209.650 266.479,208.000 266.162 C 206.350 265.845,201.040 265.402,196.200 265.177 C 191.360 264.952,184.990 264.506,182.044 264.184 C 176.347 263.563,172.102 263.525,165.000 264.032 " stroke="none" fill="#040404" fill-rule="evenodd"></path><path id="path3" d="M154.800 262.784 C 152.930 262.951,150.140 263.288,148.600 263.534 C 147.060 263.779,142.920 264.160,139.400 264.380 C 135.880 264.601,132.370 264.969,131.600 265.199 C 130.830 265.429,128.220 265.896,125.800 266.238 C 123.380 266.579,120.860 267.112,120.200 267.422 C 119.540 267.731,117.612 268.248,115.915 268.570 C 114.218 268.892,112.496 269.335,112.087 269.554 C 111.677 269.773,110.096 270.163,108.571 270.422 C 107.047 270.681,104.990 271.223,104.000 271.627 C 103.010 272.031,101.396 272.567,100.414 272.819 C 99.432 273.071,98.193 273.620,97.660 274.039 C 97.128 274.457,96.399 274.800,96.040 274.800 C 95.682 274.800,94.761 275.134,93.994 275.541 C 93.227 275.949,91.880 276.501,91.000 276.768 C 89.462 277.235,85.647 278.887,84.400 279.626 C 83.803 279.980,81.791 281.053,77.600 283.251 C 76.390 283.885,75.051 284.629,74.623 284.902 C 70.642 287.454,67.472 289.595,66.575 290.339 C 66.341 290.533,65.711 290.926,65.175 291.211 C 64.639 291.497,64.020 291.938,63.800 292.192 C 63.580 292.446,61.690 294.029,59.600 295.711 C 56.592 298.132,50.265 304.069,46.940 307.593 C 45.685 308.923,44.780 309.548,43.936 309.668 C 42.304 309.900,42.502 311.200,44.170 311.200 C 45.670 311.200,48.800 308.889,48.800 307.780 C 48.800 307.491,49.133 307.148,49.539 307.019 C 49.946 306.890,50.482 306.338,50.731 305.792 C 50.979 305.247,51.345 304.800,51.543 304.800 C 52.043 304.800,55.200 301.692,55.200 301.200 C 55.200 300.980,55.430 300.800,55.711 300.800 C 55.992 300.800,56.686 300.305,57.254 299.700 C 57.822 299.095,59.167 297.970,60.243 297.200 C 61.320 296.430,62.528 295.395,62.929 294.900 C 63.330 294.405,63.909 294.000,64.215 294.000 C 64.521 294.000,64.965 293.640,65.200 293.200 C 65.435 292.760,65.847 292.391,66.114 292.380 C 66.381 292.369,67.680 291.562,69.000 290.587 C 70.320 289.612,72.042 288.465,72.827 288.037 C 73.611 287.609,74.489 286.975,74.776 286.629 C 75.063 286.283,75.601 286.000,75.971 286.000 C 76.342 286.000,77.255 285.550,78.000 285.000 C 78.745 284.450,79.577 284.000,79.847 284.000 C 80.117 284.000,80.847 283.583,81.469 283.073 C 82.091 282.563,83.230 281.904,84.000 281.607 C 84.770 281.311,85.670 280.848,86.000 280.579 C 86.330 280.309,87.230 279.961,88.000 279.805 C 88.770 279.649,90.120 279.111,91.000 278.609 C 91.880 278.108,93.173 277.574,93.872 277.423 C 94.572 277.272,95.358 276.891,95.619 276.577 C 95.880 276.263,96.837 275.822,97.747 275.597 C 98.656 275.372,99.940 274.926,100.600 274.607 C 101.260 274.288,103.058 273.744,104.595 273.397 C 106.132 273.051,107.757 272.527,108.205 272.234 C 108.653 271.940,110.005 271.568,111.210 271.408 C 112.414 271.247,114.030 270.790,114.800 270.393 C 115.570 269.996,117.655 269.484,119.434 269.255 C 121.213 269.025,123.193 268.571,123.834 268.245 C 124.508 267.902,127.363 267.450,130.600 267.175 C 133.680 266.912,137.190 266.436,138.400 266.117 C 139.610 265.797,144.740 265.291,149.800 264.991 C 154.860 264.692,162.578 264.227,166.951 263.957 C 173.892 263.530,175.748 263.552,181.551 264.134 C 185.208 264.501,191.980 264.978,196.600 265.195 C 201.220 265.412,206.350 265.848,208.000 266.164 C 209.650 266.480,213.880 266.954,217.400 267.218 C 220.920 267.481,224.362 267.942,225.049 268.242 C 226.469 268.864,230.963 269.580,233.514 269.592 C 234.457 269.596,235.641 269.871,236.147 270.202 C 236.652 270.533,238.940 271.057,241.232 271.367 C 243.525 271.676,246.120 272.190,247.000 272.508 C 247.880 272.826,250.094 273.303,251.920 273.568 C 253.746 273.833,255.921 274.290,256.754 274.584 C 257.587 274.878,259.569 275.320,261.160 275.567 C 262.750 275.813,264.472 276.291,264.987 276.628 C 265.501 276.965,267.146 277.431,268.642 277.664 C 270.138 277.897,271.731 278.325,272.181 278.616 C 272.631 278.906,274.440 279.415,276.200 279.747 C 277.960 280.079,280.030 280.612,280.800 280.931 C 281.570 281.250,283.010 281.640,284.000 281.798 C 284.990 281.955,286.340 282.410,287.000 282.809 C 287.660 283.207,288.918 283.666,289.795 283.829 C 290.672 283.991,292.292 284.545,293.395 285.058 C 294.498 285.572,295.943 285.994,296.606 285.996 C 297.269 285.998,298.444 286.339,299.217 286.753 C 299.990 287.167,301.697 287.728,303.011 288.000 C 304.325 288.271,305.510 288.667,305.644 288.880 C 305.900 289.284,309.976 290.851,313.400 291.860 C 315.488 292.476,318.500 293.777,321.659 295.428 C 322.681 295.963,323.768 296.400,324.074 296.400 C 324.380 296.400,325.344 296.764,326.215 297.210 C 327.087 297.655,328.518 298.214,329.396 298.451 C 330.274 298.689,331.472 299.224,332.058 299.641 C 332.644 300.059,333.366 300.403,333.662 300.407 C 333.958 300.411,334.992 300.951,335.960 301.607 C 336.928 302.263,338.018 302.800,338.382 302.800 C 338.747 302.800,339.655 303.250,340.400 303.800 C 341.145 304.350,341.994 304.800,342.285 304.800 C 342.992 304.800,347.194 307.057,347.756 307.738 C 348.000 308.034,348.830 308.513,349.600 308.803 C 350.370 309.093,351.360 309.635,351.800 310.009 C 353.670 311.598,357.200 312.115,357.200 310.800 C 357.200 310.257,356.933 310.000,356.369 310.000 C 355.099 310.000,347.916 306.306,346.127 304.734 C 345.727 304.382,344.962 303.961,344.427 303.797 C 343.891 303.633,342.650 303.072,341.667 302.550 C 340.685 302.027,339.646 301.600,339.358 301.600 C 339.071 301.600,338.172 301.150,337.362 300.600 C 336.551 300.050,335.678 299.600,335.422 299.600 C 335.165 299.600,334.358 299.159,333.628 298.621 C 332.899 298.082,331.801 297.532,331.190 297.398 C 330.578 297.263,329.392 296.804,328.554 296.377 C 327.716 295.950,326.768 295.600,326.447 295.600 C 325.895 295.600,321.293 293.580,320.000 292.770 C 318.515 291.840,313.646 289.972,311.052 289.337 C 309.761 289.021,308.463 288.520,308.167 288.224 C 307.872 287.929,306.678 287.460,305.515 287.183 C 304.352 286.906,303.040 286.456,302.600 286.184 C 302.160 285.912,300.810 285.462,299.600 285.184 C 298.390 284.906,297.040 284.452,296.600 284.176 C 296.160 283.899,294.720 283.460,293.400 283.200 C 292.080 282.940,290.618 282.484,290.151 282.188 C 289.684 281.891,288.154 281.358,286.751 281.004 C 285.348 280.649,283.660 280.116,283.000 279.819 C 282.340 279.522,280.720 279.061,279.400 278.794 C 278.080 278.527,276.550 278.081,276.000 277.802 C 275.450 277.524,273.650 277.073,272.000 276.800 C 270.350 276.527,268.550 276.079,268.000 275.804 C 267.450 275.529,266.100 275.174,265.000 275.014 C 263.900 274.855,261.740 274.306,260.200 273.794 C 258.660 273.282,256.680 272.747,255.800 272.605 C 254.920 272.464,253.120 272.021,251.800 271.621 C 250.480 271.222,248.050 270.768,246.400 270.613 C 244.750 270.458,242.050 270.002,240.400 269.600 C 238.750 269.198,235.834 268.668,233.919 268.422 C 232.005 268.176,229.845 267.729,229.119 267.427 C 228.394 267.125,226.090 266.678,224.000 266.432 C 221.910 266.186,218.850 265.723,217.200 265.403 C 213.785 264.739,204.648 264.008,199.600 263.994 C 197.730 263.988,194.670 263.706,192.800 263.365 C 188.959 262.666,160.921 262.238,154.800 262.784 " stroke="none" fill="#54141c" fill-rule="evenodd"></path><path id="path4" d="M158.800 53.991 C 157.810 54.177,156.370 54.594,155.600 54.917 C 154.830 55.240,152.940 55.633,151.400 55.789 C 149.860 55.946,148.060 56.398,147.400 56.795 C 146.740 57.192,145.210 57.640,144.000 57.792 C 142.790 57.944,141.080 58.395,140.200 58.794 C 139.320 59.194,137.928 59.732,137.106 59.989 C 136.284 60.247,135.502 60.635,135.369 60.850 C 135.236 61.066,134.198 61.679,133.063 62.212 C 131.928 62.745,130.730 63.354,130.400 63.566 C 130.070 63.779,129.318 64.053,128.728 64.177 C 128.138 64.300,127.344 64.713,126.964 65.094 C 126.583 65.474,125.580 66.095,124.736 66.473 C 123.891 66.851,123.200 67.316,123.200 67.506 C 123.200 67.696,122.570 68.152,121.800 68.519 C 121.030 68.887,120.400 69.358,120.400 69.567 C 120.400 69.775,119.995 70.073,119.500 70.228 C 116.696 71.105,101.600 85.968,101.600 87.851 C 101.600 87.985,101.050 88.748,100.378 89.547 C 99.706 90.346,98.805 91.421,98.377 91.935 C 97.948 92.450,97.479 93.350,97.334 93.935 C 97.189 94.521,96.754 95.225,96.367 95.500 C 95.980 95.776,95.550 96.519,95.411 97.151 C 95.272 97.784,94.718 98.899,94.179 99.628 C 93.641 100.358,93.200 101.166,93.200 101.424 C 93.200 101.681,92.857 102.328,92.439 102.860 C 92.020 103.393,91.463 104.632,91.201 105.614 C 90.940 106.596,90.466 107.691,90.148 108.048 C 89.831 108.404,89.367 109.844,89.118 111.248 C 88.869 112.651,88.414 114.097,88.107 114.460 C 87.800 114.822,87.302 116.532,86.999 118.260 C 86.696 119.987,86.134 122.120,85.750 123.000 C 84.358 126.188,84.549 152.852,85.976 154.571 C 86.192 154.831,86.570 156.384,86.815 158.022 C 87.061 159.660,87.596 161.720,88.004 162.600 C 88.412 163.480,88.931 165.231,89.158 166.491 C 89.384 167.751,89.847 169.205,90.186 169.723 C 90.525 170.240,91.073 171.573,91.403 172.684 C 91.733 173.795,92.272 174.928,92.601 175.201 C 92.931 175.474,93.200 176.012,93.200 176.395 C 93.200 176.778,93.536 177.521,93.946 178.046 C 94.356 178.571,95.076 179.765,95.546 180.700 C 96.016 181.635,96.760 183.111,97.200 183.980 C 97.639 184.849,98.229 185.704,98.509 185.880 C 99.049 186.219,100.046 187.575,101.454 189.888 C 102.490 191.590,108.290 198.249,110.435 200.200 C 110.677 200.420,111.348 201.095,111.927 201.700 C 112.505 202.305,113.196 202.800,113.462 202.800 C 113.728 202.800,114.060 203.160,114.200 203.600 C 114.340 204.040,114.587 204.400,114.750 204.400 C 115.007 204.400,119.286 207.490,122.460 209.967 C 123.043 210.422,123.853 210.916,124.260 211.065 C 124.667 211.214,125.509 211.756,126.131 212.268 C 126.753 212.781,127.483 213.200,127.753 213.200 C 128.023 213.200,128.855 213.650,129.600 214.200 C 130.345 214.750,131.245 215.200,131.600 215.200 C 131.955 215.200,132.830 215.632,133.546 216.160 C 134.261 216.688,135.511 217.243,136.323 217.393 C 137.135 217.544,138.340 217.997,139.000 218.400 C 139.660 218.803,140.910 219.264,141.777 219.425 C 142.645 219.586,143.905 220.042,144.577 220.437 C 145.250 220.833,146.993 221.346,148.451 221.578 C 149.909 221.810,151.739 222.266,152.519 222.592 C 157.035 224.479,181.415 224.374,187.475 222.441 C 188.754 222.034,190.742 221.571,191.892 221.413 C 193.043 221.256,194.393 220.809,194.892 220.420 C 195.392 220.031,196.613 219.592,197.606 219.446 C 198.600 219.299,199.950 218.825,200.606 218.392 C 201.263 217.959,202.085 217.604,202.434 217.603 C 203.266 217.599,212.959 212.698,213.803 211.854 C 214.163 211.494,214.722 211.200,215.047 211.200 C 215.371 211.200,216.042 210.795,216.537 210.300 C 217.033 209.805,217.924 209.179,218.519 208.909 C 219.114 208.638,219.600 208.242,219.600 208.027 C 219.600 207.813,220.191 207.357,220.914 207.014 C 221.636 206.671,223.104 205.586,224.175 204.603 C 225.246 203.620,226.445 202.713,226.841 202.587 C 227.236 202.462,227.667 202.017,227.800 201.600 C 227.933 201.183,228.392 200.730,228.820 200.594 C 229.249 200.457,229.600 200.181,229.600 199.980 C 229.600 199.779,231.040 198.157,232.800 196.376 C 234.560 194.594,236.000 192.995,236.000 192.823 C 236.000 192.650,236.537 191.899,237.194 191.154 C 237.850 190.409,238.390 189.641,238.394 189.446 C 238.397 189.251,238.805 188.680,239.300 188.177 C 240.716 186.736,241.860 185.088,242.199 184.000 C 242.370 183.450,242.935 182.491,243.455 181.869 C 243.975 181.247,244.400 180.560,244.400 180.343 C 244.400 180.125,244.836 179.374,245.369 178.673 C 245.902 177.973,246.459 176.912,246.608 176.316 C 246.757 175.720,247.128 175.026,247.433 174.773 C 247.737 174.520,248.206 173.253,248.473 171.957 C 248.741 170.660,249.082 169.600,249.232 169.600 C 249.580 169.600,250.274 167.798,250.618 166.000 C 250.766 165.230,251.232 164.030,251.654 163.334 C 252.077 162.638,252.580 160.928,252.773 159.534 C 252.966 158.140,253.426 156.190,253.796 155.200 C 255.341 151.062,255.243 127.736,253.661 122.969 C 253.228 121.666,252.773 119.632,252.650 118.449 C 252.527 117.267,252.127 115.844,251.763 115.287 C 251.398 114.731,250.846 113.185,250.535 111.852 C 250.224 110.520,249.736 109.153,249.450 108.815 C 249.164 108.477,248.711 107.179,248.443 105.931 C 248.175 104.683,247.714 103.461,247.417 103.215 C 247.121 102.968,246.759 102.292,246.613 101.710 C 246.467 101.129,245.910 100.133,245.374 99.496 C 244.838 98.860,244.400 98.096,244.400 97.800 C 244.400 97.504,243.979 96.753,243.464 96.131 C 242.949 95.509,242.317 94.384,242.060 93.630 C 241.803 92.877,241.334 91.977,241.016 91.630 C 238.617 89.008,238.000 88.216,238.000 87.761 C 238.000 87.474,237.727 87.087,237.393 86.900 C 237.059 86.713,236.474 85.996,236.093 85.307 C 234.669 82.732,222.479 71.096,220.393 70.320 C 219.979 70.167,219.317 69.750,218.920 69.395 C 217.343 67.980,214.575 66.008,214.162 66.004 C 213.921 66.002,213.401 65.644,213.007 65.208 C 212.613 64.772,211.640 64.300,210.845 64.158 C 210.050 64.017,209.040 63.586,208.600 63.200 C 208.160 62.814,207.139 62.287,206.332 62.029 C 205.525 61.770,204.655 61.307,204.400 61.000 C 204.145 60.693,203.275 60.234,202.468 59.981 C 201.661 59.728,200.280 59.194,199.400 58.794 C 198.520 58.395,196.831 57.942,195.647 57.789 C 194.463 57.636,192.933 57.180,192.247 56.776 C 191.561 56.372,189.740 55.919,188.200 55.769 C 186.660 55.619,184.590 55.123,183.600 54.666 C 181.625 53.756,162.781 53.242,158.800 53.991 M181.790 56.193 C 185.439 56.739,188.768 57.369,189.186 57.593 C 189.605 57.817,191.174 58.258,192.674 58.574 C 194.173 58.890,196.210 59.516,197.200 59.965 C 198.190 60.415,199.360 60.791,199.800 60.801 C 200.240 60.812,201.950 61.534,203.600 62.406 C 205.250 63.278,207.230 64.268,208.000 64.605 C 208.770 64.943,209.670 65.400,210.000 65.620 C 210.330 65.840,211.320 66.382,212.200 66.825 C 213.080 67.268,214.610 68.250,215.600 69.007 C 216.590 69.765,217.940 70.682,218.600 71.045 C 220.982 72.357,227.197 77.909,232.063 83.072 C 234.743 85.914,241.200 94.720,241.200 95.531 C 241.200 95.694,241.837 96.811,242.614 98.013 C 243.871 99.956,244.439 101.063,246.612 105.800 C 246.914 106.460,247.365 107.792,247.613 108.761 C 247.861 109.729,248.409 111.166,248.832 111.955 C 249.254 112.743,249.600 113.631,249.600 113.927 C 249.600 114.223,250.042 115.756,250.581 117.333 C 252.496 122.927,253.937 138.144,253.229 145.282 C 252.248 155.155,250.307 164.185,248.719 166.262 C 248.524 166.516,248.029 167.866,247.618 169.262 C 246.350 173.573,244.395 177.676,242.500 180.008 C 242.005 180.617,241.600 181.346,241.600 181.628 C 241.600 182.198,239.455 185.488,237.000 188.683 C 236.120 189.829,234.770 191.590,234.000 192.597 C 232.061 195.132,226.108 201.157,224.329 202.385 C 222.732 203.487,219.915 205.762,218.695 206.935 C 218.274 207.339,217.361 207.931,216.665 208.250 C 215.969 208.569,214.590 209.357,213.600 210.002 C 212.610 210.647,210.958 211.627,209.928 212.179 C 208.899 212.732,207.943 213.368,207.805 213.592 C 207.666 213.817,207.244 214.000,206.866 214.000 C 206.489 214.000,205.104 214.534,203.790 215.187 C 202.475 215.841,201.123 216.381,200.785 216.387 C 200.446 216.394,199.456 216.766,198.585 217.212 C 195.573 218.756,190.182 220.299,185.400 220.986 C 182.760 221.365,179.700 221.825,178.600 222.009 C 169.610 223.506,145.276 220.586,141.356 217.540 C 141.113 217.351,139.872 216.838,138.600 216.400 C 137.328 215.962,136.087 215.447,135.844 215.254 C 135.600 215.062,134.680 214.681,133.800 214.409 C 132.350 213.961,130.887 213.150,127.992 211.194 C 127.438 210.819,126.607 210.393,126.145 210.246 C 125.683 210.099,124.984 209.624,124.591 209.190 C 124.198 208.755,123.663 208.400,123.404 208.400 C 122.965 208.400,119.505 205.934,118.600 204.977 C 118.380 204.744,117.330 203.934,116.268 203.177 C 113.111 200.928,109.591 197.290,103.559 190.046 C 103.122 189.522,102.507 188.593,102.191 187.983 C 101.875 187.372,101.478 186.811,101.308 186.736 C 100.808 186.515,98.737 183.224,97.070 180.000 C 96.217 178.350,95.270 176.718,94.965 176.374 C 94.660 176.030,94.202 175.130,93.948 174.374 C 93.694 173.618,93.265 172.730,92.993 172.400 C 92.722 172.070,92.264 170.810,91.976 169.600 C 91.688 168.390,91.240 166.950,90.980 166.400 C 90.720 165.850,90.279 164.410,90.000 163.200 C 89.721 161.990,89.235 160.491,88.919 159.868 C 86.624 155.334,85.127 132.328,86.771 126.842 C 86.994 126.095,87.458 123.856,87.802 121.867 C 88.145 119.878,88.595 118.047,88.803 117.796 C 89.010 117.546,89.475 116.185,89.836 114.771 C 90.196 113.357,90.707 111.750,90.971 111.200 C 91.236 110.650,91.678 109.270,91.954 108.133 C 92.231 106.997,93.119 104.859,93.928 103.384 C 94.738 101.908,96.210 99.224,97.200 97.419 C 98.874 94.366,99.646 93.168,102.210 89.643 C 103.987 87.200,106.103 84.623,107.363 83.368 C 108.043 82.690,109.338 81.304,110.241 80.287 C 111.144 79.270,113.394 77.172,115.241 75.624 C 117.088 74.076,118.905 72.547,119.279 72.226 C 119.652 71.905,120.462 71.359,121.079 71.013 C 121.695 70.667,123.010 69.775,124.000 69.030 C 126.135 67.423,138.918 60.804,139.911 60.791 C 140.290 60.786,141.410 60.412,142.400 59.959 C 143.390 59.506,145.535 58.877,147.166 58.562 C 148.798 58.246,150.329 57.825,150.570 57.625 C 150.811 57.425,152.986 56.962,155.404 56.596 C 157.822 56.230,160.610 55.787,161.600 55.612 C 165.623 54.901,174.949 55.169,181.790 56.193 " stroke="none" fill="#e87886" fill-rule="evenodd"></path></g></svg>